<svg width="1440" height="448" viewBox="0 0 1440 448" fill="none" xmlns="http://www.w3.org/2000/svg">
<g clip-path="url(#clip0_1_7893)">
<path d="M1164.06 291.78C1264.49 397.051 1396.46 445.276 1440 448.033L1448.76 30.0117L0.0170538 -0.333817L-1.37941 66.3355C267.297 240.154 405.341 199.393 687.054 151.949C968.766 104.505 1063.64 186.509 1164.06 291.78Z" fill="#B7E807"/>
<path d="M1169.91 267.372C1272.51 370.517 1405.46 415.968 1449.05 417.812V-0.30072L-0.00195312 -0.30072V66.3832C272.256 234.537 409.416 190.894 690.073 137.561C970.73 84.2276 1067.3 164.228 1169.91 267.372Z" fill="#0A5D2E"/>
</g>
<defs>
<clipPath id="clip0_1_7893">
<rect width="1440" height="448" fill="white" transform="matrix(-1 0 0 -1 1440 448)"/>
</clipPath>
</defs>
</svg>
