<svg width="21" height="21" viewBox="0 0 21 21" fill="none" xmlns="http://www.w3.org/2000/svg">
<path d="M0.134531 0.344021C0.337148 0.0187696 0.773555 -0.0925936 1.09594 0.0824057C7.57066 3.30177 14.0458 6.52026 20.5201 9.74095C20.7912 9.86469 20.984 10.151 21 10.4697V10.5077C20.9906 10.8347 20.7933 11.1308 20.514 11.2545C14.1065 14.4425 7.69781 17.6274 1.28994 20.8145C1.09225 20.9153 0.882246 21.0324 0.65584 20.9917C0.299414 20.9502 0.0147656 20.6064 0 20.2228L0 20.1998C0.00205078 19.9227 0.146016 19.6916 0.303926 19.4874C2.38998 16.4904 4.47645 13.4937 6.56209 10.4962C4.4301 7.43193 2.29605 4.369 0.164062 1.30475C0.0561914 1.16113 0.0155859 0.97773 0 0.797428L0 0.777984C0.0229688 0.62729 0.0475781 0.469525 0.134531 0.344021Z" fill="#424448"/>
</svg>
